<?xml version="1.0" standalone="no"?>
<!DOCTYPE svg PUBLIC "-//W3C//DTD SVG 1.1//EN" "http://www.w3.org/Graphics/SVG/1.1/DTD/svg11.dtd" >
<svg>
<metadata>
Created by FontForge 20120731 at Wed Jun 20 21:35:21 2018
 By www
Copyright (c) 1990, 1991 Adobe Systems Incorporated.  All Rights Reserved.Gill Sans is a registered trademark of The Monotype Corporation Plc.
</metadata>
<defs>
<font id="GillSans-UltraBoldCondensed" horiz-adv-x="581" >
  <font-face 
    font-family="Gill Sans"
    font-weight="700"
    font-stretch="condensed"
    units-per-em="1000"
    panose-1="0 0 0 0 0 0 0 0 0 0"
    ascent="800"
    descent="-200"
    x-height="588"
    cap-height="745"
    bbox="-151 -252 1048 995"
    underline-thickness="50"
    underline-position="-75"
    stemh="234"
    stemv="206"
    unicode-range="U+0020-FB02"
  />
<missing-glyph horiz-adv-x="333" 
 />
    <glyph glyph-name=".notdef" horiz-adv-x="333" 
 />
    <glyph glyph-name="space" unicode=" " horiz-adv-x="333" 
 />
    <glyph glyph-name="exclam" unicode="!" horiz-adv-x="276" 
d="M111 214c-47 116 -85 241 -85 336c0 120 47 207 110 207c68 0 114 -81 114 -205c0 -103 -40 -222 -87 -338c33 -18 54 -60 54 -110c0 -64 -36 -116 -79 -116c-44 0 -79 52 -79 116c0 50 20 93 52 110z" />
    <glyph glyph-name="quotedbl" unicode="&#x22;" horiz-adv-x="340" 
d="M189 745h135v-118l-22 -145h-91l-22 145v118zM16 745h135v-118l-22 -145h-91l-22 145v118z" />
    <glyph glyph-name="numbersign" unicode="#" horiz-adv-x="453" 
d="M20 524h96l24 172h92l-24 -172h89l24 172h92l-24 -172h43v-133h-62l-15 -106h77v-133h-96l-24 -172h-92l24 172h-89l-24 -172h-92l24 172h-43v133h62l15 106h-77v133zM189 391l-15 -106h89l15 106h-89z" />
    <glyph glyph-name="dollar" unicode="$" horiz-adv-x="517" 
d="M334 429c130 -62 148 -145 148 -219c0 -136 -76 -222 -196 -222c-62 0 -113 16 -171 54l-31 -54h-88l187 330c-119 59 -149 124 -149 218c0 131 79 221 194 221c61 0 131 -24 170 -59l34 59h88zM271 473l58 104c-14 18 -28 26 -45 26c-26 0 -46 -28 -46 -65
c0 -26 9 -43 33 -65zM249 279l-62 -109c15 -19 33 -28 49 -28c24 0 46 32 46 69c0 26 -10 47 -33 68z" />
    <glyph glyph-name="percent" unicode="%" horiz-adv-x="729" 
d="M715 193c0 -115 -66 -200 -156 -200s-156 85 -156 200c0 117 66 201 156 201s156 -85 156 -201zM528 204c0 -24 13 -41 31 -41s31 17 31 41c0 23 -13 40 -31 40s-31 -17 -31 -40zM326 556c0 -115 -66 -200 -156 -200s-156 85 -156 200c0 117 66 201 156 201
s156 -85 156 -201zM139 567c0 -24 13 -41 31 -41s31 17 31 41c0 23 -13 40 -31 40s-31 -17 -31 -40zM193 -12l262 769h76l-262 -769h-76z" />
    <glyph glyph-name="ampersand" unicode="&#x26;" horiz-adv-x="638" 
d="M452 427h128c-26 -67 -68 -140 -103 -191l158 -236h-229l-51 76c-49 -54 -115 -88 -175 -88c-90 0 -148 69 -148 176c0 78 33 160 125 217c-35 55 -51 104 -51 160c0 124 75 216 175 216c89 0 153 -73 153 -177c0 -65 -25 -125 -71 -173l49 -72c14 22 30 57 40 92z
M290 173l-55 82c-27 -27 -32 -39 -32 -62c0 -30 16 -52 38 -52c15 0 30 10 49 32zM315 472c28 12 44 37 44 69c0 30 -16 51 -38 51c-20 0 -37 -23 -37 -52c0 -21 12 -48 31 -68z" />
    <glyph glyph-name="quoteright" unicode="&#x2019;" horiz-adv-x="276" 
d="M69 300l-6 6c29 25 49 74 52 125c-59 25 -89 78 -89 155c0 95 50 171 112 171c66 0 110 -72 110 -177c0 -134 -78 -256 -179 -280z" />
    <glyph glyph-name="parenleft" unicode="(" horiz-adv-x="382" 
d="M240 757h140c-114 -143 -159 -285 -159 -461c0 -181 45 -318 159 -461h-140c-134 141 -195 288 -195 461c0 166 56 313 195 461z" />
    <glyph glyph-name="parenright" unicode=")" horiz-adv-x="382" 
d="M142 -165h-140c114 143 159 285 159 461c0 181 -45 318 -159 461h140c134 -141 195 -288 195 -461c0 -166 -56 -313 -195 -461z" />
    <glyph glyph-name="asterisk" unicode="*" horiz-adv-x="489" 
d="M145 429l-121 51c6 73 38 157 78 204l90 -131l2 2l-30 180c21 14 47 22 76 22c33 0 63 -8 84 -22l-30 -180l2 -2l89 131c41 -47 73 -131 79 -204l-122 -51l122 -51c-6 -73 -38 -157 -79 -204l-89 131l-2 -2l30 -180c-22 -14 -48 -22 -76 -22c-33 0 -63 8 -84 22l30 180
l-2 2l-90 -131c-40 47 -72 131 -78 204z" />
    <glyph glyph-name="plus" unicode="+" horiz-adv-x="453" 
d="M35 418h112v112h158v-112h112v-158h-112v-112h-158v112h-112v158z" />
    <glyph glyph-name="comma" unicode="," horiz-adv-x="276" 
d="M71 -141l-6 6c29 25 49 74 52 125c-59 25 -89 78 -89 155c0 95 50 171 112 171c66 0 110 -72 110 -177c0 -134 -78 -256 -179 -280z" />
    <glyph glyph-name="hyphen" unicode="-" horiz-adv-x="283" 
d="M25 200v188h234v-188h-234z" />
    <glyph glyph-name="period" unicode="." horiz-adv-x="276" 
d="M138 306c60 0 108 -71 108 -159s-48 -159 -108 -159s-108 71 -108 159s48 159 108 159z" />
    <glyph glyph-name="slash" unicode="/" horiz-adv-x="192" 
d="M-26 -87l135 832h109l-135 -832h-109z" />
    <glyph glyph-name="zero" unicode="0" 
d="M31 373c0 215 114 384 260 384s259 -168 259 -384s-113 -385 -259 -385s-260 169 -260 385zM239 393c0 -45 22 -78 52 -78s51 33 51 78s-21 78 -51 78s-52 -33 -52 -78z" />
    <glyph glyph-name="one" unicode="1" 
d="M404 0h-226v662l226 95v-757z" />
    <glyph glyph-name="two" unicode="2" 
d="M489 133v-133h-407c109 206 163 311 163 383c0 44 -22 77 -49 77c-38 0 -79 -60 -106 -126h-5v330c66 68 116 93 177 93c124 0 213 -117 213 -303c0 -107 -28 -197 -82 -321h96z" />
    <glyph glyph-name="three" unicode="3" 
d="M114 745h194c145 0 188 -93 188 -194c0 -78 -24 -127 -85 -168c57 -30 90 -95 90 -179c0 -130 -60 -204 -193 -204h-194v254l17 -23c30 -40 62 -49 86 -49c37 0 60 27 60 69c0 55 -30 90 -78 90c-24 0 -49 -8 -85 -27v133c25 -9 49 -14 74 -14c53 0 85 31 85 82
c0 45 -25 73 -62 73c-43 0 -61 -25 -80 -51l-17 -24v232z" />
    <glyph glyph-name="four" unicode="4" 
d="M461 0h-226v250h-202v159l202 336h226v-325h83v-170h-83v-250zM235 420v181h-2l-105 -181h107z" />
    <glyph glyph-name="five" unicode="5" 
d="M526 745v-133h-179l-18 -101c135 -11 176 -137 176 -243c0 -165 -89 -280 -217 -280c-78 0 -129 27 -168 66c-33 33 -63 94 -63 126c0 3 2 8 3 8c6 0 54 -53 117 -53c59 0 102 42 102 101c0 64 -36 98 -108 99c-45 1 -72 -12 -98 -37l-5 6l75 441h383z" />
    <glyph glyph-name="six" unicode="6" 
d="M541 745v-13c-59 -26 -125 -87 -168 -155c112 -24 180 -127 180 -273c0 -215 -128 -316 -263 -316c-155 0 -260 131 -260 326c0 147 57 305 201 431h310zM333 330c0 40 -19 69 -45 69s-47 -30 -47 -69c0 -37 20 -66 47 -66c26 0 45 28 45 66z" />
    <glyph glyph-name="seven" unicode="7" 
d="M319 0h-246l179 612h-149v133h434z" />
    <glyph glyph-name="eight" unicode="8" 
d="M154 373v2c-73 25 -111 83 -111 169c0 129 66 213 247 213c167 0 248 -71 248 -213c0 -89 -37 -144 -111 -169v-2c78 -26 115 -87 115 -181c0 -140 -81 -204 -252 -204c-170 0 -252 67 -252 204c0 97 38 155 116 181zM247 540c0 -36 18 -61 43 -61c24 0 44 26 44 61
c0 36 -19 63 -44 63c-24 0 -43 -28 -43 -63zM247 206c0 -36 18 -61 43 -61c24 0 44 26 44 61c0 36 -19 63 -44 63c-24 0 -43 -28 -43 -63z" />
    <glyph glyph-name="nine" unicode="9" 
d="M41 0v13c60 26 126 87 169 155c-113 24 -181 127 -181 273c0 186 103 316 263 316c156 0 260 -131 260 -326c0 -170 -77 -321 -200 -431h-311zM249 415c0 -40 19 -69 45 -69s47 30 47 69c0 37 -20 66 -46 66c-27 0 -46 -28 -46 -66z" />
    <glyph glyph-name="colon" unicode=":" horiz-adv-x="276" 
d="M138 359c-71 0 -109 49 -109 131c0 83 38 131 109 131s109 -48 109 -131s-38 -131 -109 -131zM138 -12c-71 0 -109 49 -109 131c0 83 38 131 109 131s109 -48 109 -131s-38 -131 -109 -131z" />
    <glyph glyph-name="semicolon" unicode=";" horiz-adv-x="276" 
d="M71 -141l-6 6c29 25 49 74 52 125c-59 25 -89 78 -89 155s50 136 112 136c66 0 110 -61 110 -142c0 -134 -78 -256 -179 -280zM138 359c-71 0 -109 49 -109 131c0 83 38 131 109 131s109 -48 109 -131s-38 -131 -109 -131z" />
    <glyph glyph-name="less" unicode="&#x3c;" horiz-adv-x="453" 
d="M36 266v144l381 232v-171l-233 -133l233 -133v-171z" />
    <glyph glyph-name="equal" unicode="=" horiz-adv-x="453" 
d="M36 538h381v-158h-381v158zM36 298h381v-158h-381v158z" />
    <glyph glyph-name="greater" unicode="&#x3e;" horiz-adv-x="453" 
d="M417 266l-381 -232v171l233 133l-233 133v171l381 -232v-144z" />
    <glyph glyph-name="question" unicode="?" horiz-adv-x="390" 
d="M191 367c0 79 -35 132 -88 132c-32 0 -55 -14 -98 -40c29 157 106 298 204 298c83 0 144 -91 144 -216c0 -105 -44 -209 -136 -318c35 -19 55 -61 55 -114c0 -68 -35 -121 -81 -121c-48 0 -84 52 -84 120c0 114 84 130 84 259z" />
    <glyph glyph-name="at" unicode="@" horiz-adv-x="503" 
d="M384 589l-42 -386c-2 -17 -3 -35 12 -35c35 0 100 87 100 238c0 170 -72 278 -185 278c-131 0 -220 -144 -220 -355c0 -205 86 -342 214 -342c66 0 120 29 173 92h68c-54 -107 -146 -164 -238 -164c-173 0 -268 197 -268 413c0 177 70 429 270 429
c166 0 236 -186 236 -351c0 -109 -28 -201 -79 -264c-28 -35 -65 -57 -93 -57s-44 18 -51 57c-29 -42 -52 -58 -79 -58c-65 0 -109 84 -109 209s47 313 141 313c33 0 54 -19 78 -72h2l5 55h65zM163 267c0 -68 19 -112 49 -112c71 0 81 229 81 274c0 60 -19 98 -47 98
c-70 0 -83 -196 -83 -260z" />
    <glyph glyph-name="A" unicode="A" horiz-adv-x="673" 
d="M224 0h-224l176 745h321l176 -745h-224l-30 127h-165zM378 302l-41 182h-2l-40 -182h83z" />
    <glyph glyph-name="B" unicode="B" horiz-adv-x="595" 
d="M48 745h307c173 0 206 -114 206 -206c0 -70 -15 -119 -66 -162c60 -47 80 -102 80 -171c0 -125 -67 -206 -171 -206h-356v745zM272 595v-145h6c49 0 67 20 67 72c0 35 -10 73 -56 73h-17zM272 324v-160h8c51 0 71 21 71 76c0 52 -16 84 -62 84h-17z" />
    <glyph glyph-name="C" unicode="C" horiz-adv-x="531" 
d="M522 678l-94 -263c-26 14 -53 22 -91 22c-48 0 -72 -20 -72 -57c0 -39 28 -59 83 -59c34 0 56 6 80 24l94 -280c-51 -45 -135 -77 -202 -77c-184 0 -285 176 -285 380c0 226 119 389 282 389c72 0 157 -32 205 -79z" />
    <glyph glyph-name="D" unicode="D" horiz-adv-x="602" 
d="M50 745h257c180 0 274 -188 274 -374c0 -191 -91 -371 -284 -371h-247v745zM274 461v-172h6c54 0 77 26 77 86c0 46 -18 86 -64 86h-19z" />
    <glyph glyph-name="E" unicode="E" horiz-adv-x="489" 
d="M471 188v-188h-421v745h421v-188h-197v-90h137v-188h-137v-91h197z" />
    <glyph glyph-name="F" unicode="F" horiz-adv-x="489" 
d="M50 0v745h421v-188h-197v-133h143v-188h-143v-236h-224z" />
    <glyph glyph-name="G" unicode="G" 
d="M562 656l-108 -224c-43 31 -86 48 -123 48c-53 0 -86 -41 -86 -105c0 -62 25 -92 81 -92v117h224v-403c-38 -3 -142 -9 -210 -9c-262 0 -304 255 -304 389c0 204 96 380 283 380c82 0 173 -38 243 -101z" />
    <glyph glyph-name="H" unicode="H" horiz-adv-x="658" 
d="M272 0h-224v745h224v-273h115v273h224v-745h-224v277h-115v-277z" />
    <glyph glyph-name="I" unicode="I" horiz-adv-x="326" 
d="M51 0v745h225v-745h-225z" />
    <glyph glyph-name="J" unicode="J" horiz-adv-x="382" 
d="M120 745h224v-547c0 -170 -76 -210 -148 -210c-93 0 -170 74 -193 185c13 -4 28 -6 44 -6c63 0 73 20 73 92v486z" />
    <glyph glyph-name="K" unicode="K" horiz-adv-x="645" 
d="M276 745v-249c72 6 118 91 117 249h228c0 -182 -28 -291 -100 -371c73 -81 105 -204 115 -374h-243c1 170 -42 269 -117 272v-272h-224v745h224z" />
    <glyph glyph-name="L" unicode="L" horiz-adv-x="475" 
d="M49 0v745h224v-557h197v-188h-421z" />
    <glyph glyph-name="M" unicode="M" horiz-adv-x="716" 
d="M49 0v745h217l92 -155l93 155h216v-745h-224v373h-2l-83 -144l-83 144h-2v-373h-224z" />
    <glyph glyph-name="N" unicode="N" horiz-adv-x="602" 
d="M50 0v745h160l117 -249h2v249h224v-751h-170l-107 232h-2v-226h-224z" />
    <glyph glyph-name="O" unicode="O" 
d="M31 373c0 215 114 384 260 384s260 -168 260 -384s-114 -385 -260 -385s-260 169 -260 385zM240 393c0 -45 21 -78 51 -78c29 0 51 33 51 78s-22 78 -52 78c-29 0 -50 -33 -50 -78z" />
    <glyph glyph-name="P" unicode="P" horiz-adv-x="567" 
d="M51 745h295c180 0 213 -157 213 -252c0 -139 -75 -251 -169 -251c-40 0 -76 21 -115 65v-307h-224v745zM275 584v-163h15c38 0 60 31 60 84c0 42 -15 79 -52 79h-23z" />
    <glyph glyph-name="Q" unicode="Q" 
d="M509 161l84 -161h-169l-15 28c-34 -24 -74 -40 -118 -40c-146 0 -260 169 -260 385c0 215 114 384 260 384s260 -168 260 -384c0 -90 -20 -160 -42 -212zM240 393c0 -45 21 -78 51 -78c29 0 51 33 51 78s-22 78 -52 78c-29 0 -50 -33 -50 -78z" />
    <glyph glyph-name="R" unicode="R" horiz-adv-x="609" 
d="M274 592v-144h6c42 0 61 22 61 70c0 41 -14 74 -55 74h-12zM50 745h224c138 0 171 -5 209 -30c51 -34 82 -110 82 -193c0 -70 -20 -127 -57 -165c54 -92 88 -215 98 -357h-233c-7 185 -38 276 -96 276h-3v-276h-224v745z" />
    <glyph glyph-name="S" unicode="S" horiz-adv-x="496" 
d="M475 707l-56 -235c-33 71 -79 111 -126 111c-26 0 -40 -15 -40 -41c0 -87 230 -68 230 -305c0 -164 -83 -249 -244 -249c-86 0 -156 17 -231 56l56 249c29 -69 82 -119 126 -119c22 0 37 17 37 42c0 91 -198 65 -198 288c0 168 82 253 243 253c69 0 148 -19 203 -50z" />
    <glyph glyph-name="T" unicode="T" horiz-adv-x="475" 
d="M126 0v444h-113v301h450v-301h-113v-444h-224z" />
    <glyph glyph-name="U" unicode="U" horiz-adv-x="588" 
d="M547 745v-388c0 -281 -155 -369 -252 -369c-126 0 -252 88 -252 369v388h224v-345c0 -59 5 -85 28 -85s28 25 28 85v345h224z" />
    <glyph glyph-name="V" unicode="V" horiz-adv-x="574" 
d="M395 0h-217l-172 745h224l56 -247h2l55 247h224z" />
    <glyph glyph-name="W" unicode="W" horiz-adv-x="835" 
d="M344 0h-165l-178 745h218l58 -243h2l61 243h155l64 -243h2l56 243h218l-171 -745h-165l-78 295h-2z" />
    <glyph glyph-name="X" unicode="X" horiz-adv-x="658" 
d="M204 377l-198 368h245l74 -137l72 137h243l-192 -366l204 -379h-245l-80 149l-78 -149h-243z" />
    <glyph glyph-name="Y" unicode="Y" horiz-adv-x="617" 
d="M420 0h-224v325l-192 420h224l80 -170l80 170h224l-192 -420v-325z" />
    <glyph glyph-name="Z" unicode="Z" horiz-adv-x="559" 
d="M543 188v-188h-534l234 557h-215v188h526l-233 -557h222z" />
    <glyph glyph-name="bracketleft" unicode="[" horiz-adv-x="361" 
d="M351 15v-165h-302v895h302v-165h-96v-565h96z" />
    <glyph glyph-name="backslash" unicode="\" horiz-adv-x="192" 
d="M109 -87l-135 832h109l135 -832h-109z" />
    <glyph glyph-name="bracketright" unicode="]" horiz-adv-x="361" 
d="M10 15h96v565h-96v165h302v-895h-302v165z" />
    <glyph glyph-name="asciicircum" unicode="^" horiz-adv-x="446" 
d="M177 745h92l136 -397h-117l-64 240h-2l-64 -240h-117z" />
    <glyph glyph-name="underscore" unicode="_" horiz-adv-x="500" 
d="M-6 -75h512v-50h-512v50z" />
    <glyph glyph-name="quoteleft" unicode="&#x2018;" horiz-adv-x="276" 
d="M207 757l6 -6c-29 -25 -49 -74 -52 -125c59 -25 89 -78 89 -155c0 -95 -50 -171 -112 -171c-66 0 -110 72 -110 177c0 134 78 256 179 280z" />
    <glyph glyph-name="a" unicode="a" horiz-adv-x="481" 
d="M42 346v177c64 50 119 70 195 70c141 0 207 -81 207 -275v-318h-206v44c-26 -29 -65 -49 -98 -49c-63 0 -108 64 -108 154c0 101 55 171 136 171c23 0 48 -5 70 -14c-2 58 -29 87 -81 87c-40 0 -74 -14 -115 -47zM238 130v82c-14 7 -23 9 -34 9c-25 0 -41 -20 -41 -51
c0 -32 18 -56 43 -56c12 0 23 5 32 16z" />
    <glyph glyph-name="b" unicode="b" horiz-adv-x="539" 
d="M242 745v-175c29 16 51 23 76 23c114 0 199 -125 199 -293c0 -143 -62 -300 -235 -300h-246v745h206zM319 286c0 48 -17 76 -45 76c-10 0 -20 -4 -32 -13v-135c55 0 77 15 77 72z" />
    <glyph glyph-name="c" unicode="c" horiz-adv-x="446" 
d="M409 565v-258c-39 28 -80 44 -112 44c-39 0 -63 -21 -63 -54c0 -35 25 -54 70 -54c42 0 81 11 105 29v-255c-36 -16 -84 -26 -129 -26c-155 0 -252 117 -252 303c0 156 78 306 235 306c46 0 100 -13 146 -35z" />
    <glyph glyph-name="d" unicode="d" horiz-adv-x="546" 
d="M507 745v-745h-248c-169 0 -232 166 -232 299c0 141 67 294 197 294c29 0 58 -8 77 -21v173h206zM301 214v133c-8 9 -22 15 -33 15c-26 0 -44 -30 -44 -74c0 -51 18 -74 61 -74h16z" />
    <glyph glyph-name="e" unicode="e" horiz-adv-x="475" 
d="M450 224v-103c-47 -90 -116 -130 -194 -130c-139 0 -231 123 -231 308c0 178 85 301 209 301c127 0 220 -125 216 -344h-210c15 -59 53 -96 98 -96s87 24 112 64zM227 359h98c-2 57 -21 93 -51 93c-26 0 -47 -40 -47 -93z" />
    <glyph glyph-name="f" unicode="f" horiz-adv-x="393" 
d="M377 410v-124h-116v-286h-206v286h-44v124h44c0 231 91 347 222 347c32 0 60 -7 100 -23v-289c-24 32 -37 47 -59 47c-34 0 -57 -25 -57 -82h116z" />
    <glyph glyph-name="g" unicode="g" horiz-adv-x="517" 
d="M481 588v-472c0 -195 -76 -281 -217 -281c-88 0 -175 31 -234 85v267c50 -71 103 -105 164 -105c43 0 90 21 81 91c-22 -20 -54 -32 -86 -32c-96 0 -160 89 -160 220c0 134 52 227 169 227h283zM275 422h-5c-46 0 -68 -23 -68 -74c0 -40 18 -66 45 -66c11 0 21 4 28 13
v127z" />
    <glyph glyph-name="h" unicode="h" horiz-adv-x="546" 
d="M240 745v-233h2c29 54 70 81 119 81c89 0 147 -78 147 -217v-376h-194v339c0 40 -10 76 -38 76c-12 0 -24 -7 -36 -23v-392h-206v745h206z" />
    <glyph glyph-name="i" unicode="i" horiz-adv-x="283" 
d="M245 588v-588h-206v588h5c15 -24 80 -34 100 -34c19 0 82 8 96 34h5zM186 757c32 0 58 -38 58 -85s-26 -84 -58 -84s-58 37 -58 84s26 85 58 85z" />
    <glyph glyph-name="j" unicode="j" horiz-adv-x="340" 
d="M290 588v-419c0 -261 -108 -331 -202 -331c-31 0 -59 9 -82 26v224c13 -6 22 -9 33 -9c35 0 45 33 45 85v424h5c12 -14 65 -34 101 -34c42 0 85 18 95 34h5zM233 757c32 0 58 -38 58 -85s-26 -84 -58 -84s-58 37 -58 84s26 85 58 85z" />
    <glyph glyph-name="k" unicode="k" horiz-adv-x="531" 
d="M242 745v-353c49 28 71 99 71 196h210c-11 -127 -31 -191 -84 -245c62 -69 87 -172 84 -343h-204c7 125 -16 260 -77 289v-289h-206v745h206z" />
    <glyph glyph-name="l" unicode="l" horiz-adv-x="283" 
d="M245 0h-206v745h206v-745z" />
    <glyph glyph-name="m" unicode="m" horiz-adv-x="815" 
d="M243 588v-74h2c31 53 72 79 121 79c59 0 100 -32 129 -102c43 70 91 102 144 102c100 0 142 -100 142 -232v-361h-194v343c0 43 -10 74 -38 74c-11 0 -28 -8 -37 -19v-398h-194v343c0 46 -13 74 -38 74c-12 0 -27 -9 -37 -20v-397h-206v588h206z" />
    <glyph glyph-name="n" unicode="n" horiz-adv-x="546" 
d="M243 588v-74h2c35 55 73 79 122 79c114 0 145 -105 145 -255v-338h-194v348c0 40 -13 69 -37 69c-11 0 -27 -9 -38 -20v-397h-206v588h206z" />
    <glyph glyph-name="o" unicode="o" horiz-adv-x="489" 
d="M465 292c0 -182 -86 -301 -221 -301c-133 0 -221 123 -221 307c0 178 90 302 221 302c126 0 221 -114 221 -308zM289 300c0 39 -19 66 -45 66s-45 -27 -45 -66s19 -66 45 -66s45 27 45 66z" />
    <glyph glyph-name="p" unicode="p" horiz-adv-x="546" 
d="M245 588v-45c30 32 63 50 97 50c102 0 178 -123 178 -290c0 -179 -81 -308 -193 -308c-27 0 -53 8 -82 26v-186h-206v753h206zM245 329v-106c12 -10 24 -14 35 -14c26 0 42 29 42 74c0 44 -16 74 -41 74c-14 0 -26 -10 -36 -28z" />
    <glyph glyph-name="q" unicode="q" horiz-adv-x="546" 
d="M507 -165h-206v174c-20 -13 -48 -21 -76 -21c-118 0 -198 127 -198 298c0 108 33 193 87 247c43 43 100 55 178 55h215v-753zM301 234v132h-18c-41 0 -59 -23 -59 -73c0 -44 18 -74 44 -74c11 0 25 6 33 15z" />
    <glyph glyph-name="r" unicode="r" horiz-adv-x="453" 
d="M243 588v-125h2c23 83 63 130 110 130c57 0 97 -59 97 -143c0 -86 -39 -144 -97 -144c-31 0 -59 18 -82 54c-23 -32 -30 -64 -30 -143v-217h-206v588h206z" />
    <glyph glyph-name="s" unicode="s" horiz-adv-x="418" 
d="M5 57l45 165c27 -53 71 -89 110 -89c24 0 40 16 40 42c0 64 -75 50 -129 104c-28 28 -54 72 -54 135c0 119 72 186 198 186c66 0 130 -18 177 -50l-49 -150c-30 41 -66 63 -93 63c-23 0 -34 -13 -34 -36c0 -63 88 -51 140 -103c28 -28 48 -80 48 -137
c0 -120 -71 -196 -184 -196c-63 0 -148 26 -215 66z" />
    <glyph glyph-name="t" unicode="t" horiz-adv-x="382" 
d="M360 588v-165h-86v-124c0 -40 9 -66 38 -66c26 0 38 20 50 36v-227c-29 -28 -76 -47 -119 -47c-96 0 -175 91 -175 230v198h-83l289 333v-168h86z" />
    <glyph glyph-name="u" unicode="u" horiz-adv-x="546" 
d="M505 588v-588h-198v103h-2c-34 -71 -80 -108 -136 -108c-98 0 -139 95 -139 208v385h194v-328c0 -36 8 -69 38 -69c16 0 29 12 37 31v366h206z" />
    <glyph glyph-name="v" unicode="v" horiz-adv-x="496" 
d="M-4 588h206l45 -150h2l45 150h206l-179 -588h-146z" />
    <glyph glyph-name="w" unicode="w" horiz-adv-x="673" 
d="M-1 588h209l39 -126h2l39 126h95l39 -126h2l38 126h209l-177 -588h-114l-46 161h-2l-47 -161h-115z" />
    <glyph glyph-name="x" unicode="x" 
d="M574 0h-236l-56 116l-56 -116h-220l158 299l-158 289h237l56 -114l55 114h220l-157 -297z" />
    <glyph glyph-name="y" unicode="y" horiz-adv-x="503" 
d="M285 -165h-223l82 286l-141 467h204l47 -157h2l46 157h199z" />
    <glyph glyph-name="z" unicode="z" horiz-adv-x="446" 
d="M435 194v-194h-429l144 400h-126v188h411l-145 -394h145z" />
    <glyph glyph-name="braceleft" unicode="{" horiz-adv-x="263" 
d="M9 214v166c46 0 65 33 65 108v71c0 161 32 207 139 207h45v-160h-11c-31 0 -53 -15 -53 -88v-55c0 -78 -15 -148 -59 -166c44 -18 59 -88 59 -166v-55c0 -73 22 -88 53 -88h11v-160h-45c-107 0 -139 46 -139 207v71c0 75 -19 108 -65 108z" />
    <glyph glyph-name="bar" unicode="|" horiz-adv-x="453" 
d="M172 750h109v-1000h-109v1000z" />
    <glyph glyph-name="braceright" unicode="}" horiz-adv-x="263" 
d="M254 380v-166c-46 0 -65 -33 -65 -108v-71c0 -161 -32 -207 -139 -207h-45v160h11c31 0 53 15 53 88v55c0 78 15 148 59 166c-44 18 -59 88 -59 166v55c0 73 -22 88 -53 88h-11v160h45c107 0 139 -46 139 -207v-71c0 -75 19 -108 65 -108z" />
    <glyph glyph-name="asciitilde" unicode="~" horiz-adv-x="446" 
d="M413 469v-159c-49 -58 -74 -75 -110 -75c-68 0 -113 78 -164 78c-36 0 -69 -25 -107 -78v162c41 52 74 73 113 73c64 0 123 -78 166 -78c32 0 63 23 102 77z" />
    <glyph glyph-name="exclamdown" unicode="&#xa1;" horiz-adv-x="276" 
d="M165 374c47 -116 85 -241 85 -336c0 -120 -47 -207 -110 -207c-68 0 -114 79 -114 203c0 103 40 224 87 340c-33 18 -54 60 -54 110c0 64 36 116 79 116c44 0 79 -52 79 -116c0 -50 -20 -93 -52 -110z" />
    <glyph glyph-name="cent" unicode="&#xa2;" horiz-adv-x="446" 
d="M311 675c22 -5 51 -10 98 -32v-257c-39 28 -80 44 -112 44c-39 0 -63 -21 -63 -54c0 -35 25 -54 70 -54c42 0 81 10 105 28v-254c-42 -16 -69 -20 -98 -25v-71h-103v80c-85 19 -180 106 -180 292c0 141 67 275 180 300v73h103v-70z" />
    <glyph glyph-name="sterling" unicode="&#xa3;" horiz-adv-x="510" 
d="M474 192v-192h-439c10 110 22 211 37 321h-46v103h59c23 230 114 333 228 333c106 0 184 -90 187 -217c-26 33 -61 53 -91 53c-55 0 -90 -54 -106 -169h62v-103h-74c-6 -43 -10 -84 -13 -129h196z" />
    <glyph glyph-name="fraction" unicode="&#x2044;" horiz-adv-x="35" 
d="M-151 -12l262 769h75l-262 -769h-75z" />
    <glyph glyph-name="yen" unicode="&#xa5;" horiz-adv-x="617" 
d="M420 0h-224v131h-193v68h193v58h-192v68h192l-192 420h224l80 -170l80 170h224l-192 -420h192v-68h-192v-58h191v-68h-191v-131z" />
    <glyph glyph-name="florin" unicode="&#x192;" horiz-adv-x="602" 
d="M446 496h95l-30 -152h-94l-89 -461c-18 -91 -74 -135 -172 -135c-50 0 -98 9 -163 30l42 165c34 -13 56 -19 74 -19c26 0 38 19 45 56l69 364h-91l29 152h91l24 122c17 87 72 135 173 135c50 0 110 -12 164 -32l-39 -158c-31 14 -53 20 -73 20c-31 0 -41 -26 -55 -87z
" />
    <glyph glyph-name="section" unicode="&#xa7;" horiz-adv-x="531" 
d="M441 724v-193c-33 53 -86 87 -138 87c-38 0 -64 -17 -64 -43c0 -12 5 -18 10 -23c18 -18 154 -66 197 -109c37 -37 54 -87 54 -146c0 -68 -18 -106 -73 -157c35 -38 50 -75 50 -127c0 -132 -99 -178 -223 -178c-80 0 -145 18 -195 55v188c44 -67 104 -102 181 -102
c38 0 58 13 58 38c0 56 -143 71 -221 149c-27 27 -46 61 -46 126c0 76 24 125 81 162c-33 37 -48 74 -48 123c0 111 86 183 218 183c52 0 99 -10 159 -33zM199 392c-18 -28 -24 -45 -24 -66c0 -42 17 -49 165 -122c12 20 16 34 16 55c0 61 -39 75 -157 133z" />
    <glyph glyph-name="currency" unicode="&#xa4;" horiz-adv-x="453" 
d="M36 516l68 104l48 -71c27 18 51 26 75 26s47 -8 73 -26l47 71l70 -104l-48 -70c13 -38 18 -68 18 -110c0 -41 -5 -71 -18 -105l48 -69l-70 -103l-47 69c-26 -19 -48 -27 -76 -27c-27 0 -49 8 -72 27l-45 -69l-71 103l47 69c-13 36 -18 70 -18 111c0 40 5 70 18 104z
M226 432c-35 0 -63 -42 -63 -94c0 -51 28 -93 64 -93c34 0 63 42 63 93c0 52 -29 94 -64 94z" />
    <glyph glyph-name="quotesingle" unicode="'" horiz-adv-x="192" 
d="M28 745h135v-118l-22 -145h-91l-22 145v118z" />
    <glyph glyph-name="quotedblleft" unicode="&#x201c;" horiz-adv-x="559" 
d="M491 757l6 -6c-29 -25 -49 -74 -52 -125c59 -25 89 -78 89 -155c0 -95 -50 -171 -112 -171c-66 0 -110 72 -110 177c0 134 78 256 179 280zM207 757l6 -6c-29 -25 -49 -74 -52 -125c59 -25 89 -78 89 -155c0 -95 -50 -171 -112 -171c-66 0 -110 72 -110 177
c0 134 78 256 179 280z" />
    <glyph glyph-name="guillemotleft" unicode="&#xab;" horiz-adv-x="475" 
d="M397 296l63 -261h-138l-88 261l88 261h138zM169 296l63 -261h-138l-88 261l88 261h138z" />
    <glyph glyph-name="guilsinglleft" unicode="&#x2039;" horiz-adv-x="248" 
d="M170 296l63 -261h-138l-88 261l88 261h138z" />
    <glyph glyph-name="guilsinglright" unicode="&#x203a;" horiz-adv-x="248" 
d="M78 296l-63 261h138l88 -261l-88 -261h-138z" />
    <glyph glyph-name="fi" unicode="&#xfb01;" 
d="M339 286h-77v-286h-206v286h-42v124h45c-4 253 115 347 219 347c22 0 42 -4 61 -12v-157c23 -20 66 -34 106 -34c44 0 87 18 95 34h5v-588h-206v286zM339 410v66c-10 12 -22 18 -34 18c-28 0 -45 -38 -43 -84h77zM429 672c0 47 26 85 58 85s58 -38 58 -85
s-26 -84 -58 -84s-58 37 -58 84z" />
    <glyph glyph-name="fl" unicode="&#xfb02;" 
d="M339 286h-77v-286h-206v286h-42v124h45c-2 209 77 347 220 347c25 0 43 -5 60 -12h206v-745h-206v286zM339 410v66c-10 12 -21 18 -34 18c-25 0 -45 -32 -43 -84h77z" />
    <glyph glyph-name="endash" unicode="&#x2013;" horiz-adv-x="500" 
d="M-6 377h512v-236h-512v236z" />
    <glyph glyph-name="dagger" unicode="&#x2020;" horiz-adv-x="397" 
d="M110 -142l38 525l-111 -38c-11 43 -16 76 -16 114s5 72 16 118l111 -39l-29 195c27 17 52 24 80 24c27 0 52 -7 80 -24l-29 -195l111 39c11 -46 16 -80 16 -118s-5 -71 -16 -114l-111 38l38 -525c-29 -16 -55 -23 -89 -23s-60 7 -89 23z" />
    <glyph glyph-name="daggerdbl" unicode="&#x2021;" horiz-adv-x="397" 
d="M119 -141l29 171l-111 -39c-11 44 -16 77 -16 114s4 68 16 107l111 -37l-14 121l14 121l-111 -37c-12 39 -16 70 -16 107s5 70 16 114l111 -39l-29 171c27 17 52 24 80 24c27 0 52 -7 80 -24l-29 -171l111 39c11 -44 16 -77 16 -114s-5 -68 -16 -107l-111 37l14 -121
l-14 -121l111 37c11 -39 16 -70 16 -107s-5 -70 -16 -114l-111 39l29 -171c-28 -17 -53 -24 -80 -24c-28 0 -53 7 -80 24z" />
    <glyph glyph-name="periodcentered" unicode="&#xb7;" horiz-adv-x="276" 
d="M138 532c60 0 108 -71 108 -159s-48 -159 -108 -159s-108 71 -108 159s48 159 108 159z" />
    <glyph glyph-name="paragraph" unicode="&#xb6;" 
d="M537 745v-155h-44v-677h-98v677h-56v-677h-98v416h-38c-124 0 -158 115 -158 212c0 104 45 204 152 204h340z" />
    <glyph glyph-name="bullet" unicode="&#x2022;" horiz-adv-x="340" 
d="M59 352c0 89 50 162 111 162s110 -73 110 -162c0 -88 -49 -162 -109 -162c-62 0 -112 72 -112 162z" />
    <glyph glyph-name="quotesinglbase" unicode="&#x201a;" horiz-adv-x="276" 
d="M71 -141l-6 6c29 25 49 74 52 125c-59 25 -89 78 -89 155c0 95 50 171 112 171c66 0 110 -72 110 -177c0 -134 -78 -256 -179 -280z" />
    <glyph glyph-name="quotedblbase" unicode="&#x201e;" horiz-adv-x="559" 
d="M355 -141l-6 6c29 25 49 74 52 125c-59 25 -89 78 -89 155c0 95 50 171 112 171c66 0 110 -72 110 -177c0 -134 -78 -256 -179 -280zM71 -141l-6 6c29 25 49 74 52 125c-59 25 -89 78 -89 155c0 95 50 171 112 171c66 0 110 -72 110 -177c0 -134 -78 -256 -179 -280z" />
    <glyph glyph-name="quotedblright" unicode="&#x201d;" horiz-adv-x="559" 
d="M352 300l-6 6c29 25 49 74 52 125c-59 25 -89 78 -89 155c0 95 50 171 112 171c66 0 110 -72 110 -177c0 -134 -78 -256 -179 -280zM68 300l-6 6c29 25 49 74 52 125c-59 25 -89 78 -89 155c0 95 50 171 112 171c66 0 110 -72 110 -177c0 -134 -78 -256 -179 -280z" />
    <glyph glyph-name="guillemotright" unicode="&#xbb;" horiz-adv-x="475" 
d="M306 296l-63 261h138l88 -261l-88 -261h-138zM78 296l-63 261h138l88 -261l-88 -261h-138z" />
    <glyph glyph-name="ellipsis" unicode="&#x2026;" horiz-adv-x="1000" 
d="M500 242c48 0 87 -57 87 -127s-39 -127 -87 -127s-87 57 -87 127s39 127 87 127zM167 242c48 0 87 -57 87 -127s-39 -127 -87 -127s-87 57 -87 127s39 127 87 127zM833 242c48 0 87 -57 87 -127s-39 -127 -87 -127s-87 57 -87 127s39 127 87 127z" />
    <glyph glyph-name="perthousand" unicode="&#x2030;" horiz-adv-x="1063" 
d="M1048 193c0 -115 -66 -200 -156 -200s-156 85 -156 200c0 117 66 201 156 201s156 -85 156 -201zM861 204c0 -24 13 -41 31 -41s31 17 31 41c0 23 -13 40 -31 40s-31 -17 -31 -40zM708 193c0 -115 -66 -200 -156 -200s-156 85 -156 200c0 117 66 201 156 201
s156 -85 156 -201zM521 204c0 -24 13 -41 31 -41s31 17 31 41c0 23 -13 40 -31 40s-31 -17 -31 -40zM326 556c0 -115 -66 -200 -156 -200s-156 85 -156 200c0 117 66 201 156 201s156 -85 156 -201zM139 567c0 -24 13 -41 31 -41s31 17 31 41c0 23 -13 40 -31 40
s-31 -17 -31 -40zM191 -12l262 769h76l-262 -769h-76z" />
    <glyph glyph-name="questiondown" unicode="&#xbf;" horiz-adv-x="390" 
d="M199 221c0 -79 35 -132 88 -132c32 0 55 14 98 40c-29 -157 -106 -298 -204 -298c-83 0 -144 91 -144 216c0 105 44 209 136 318c-35 19 -55 61 -55 114c0 68 35 121 81 121c48 0 84 -52 84 -120c0 -114 -84 -130 -84 -259z" />
    <glyph glyph-name="grave" unicode="`" horiz-adv-x="227" 
d="M171 626h-69l-114 131h137z" />
    <glyph glyph-name="acute" unicode="&#xb4;" horiz-adv-x="227" 
d="M56 626l46 131h137l-114 -131h-69z" />
    <glyph glyph-name="circumflex" unicode="&#x2c6;" horiz-adv-x="227" 
d="M58 628h-73l63 129h131l63 -129h-79l-56 59z" />
    <glyph glyph-name="tilde" unicode="&#x2dc;" horiz-adv-x="227" 
d="M45 630h-69c6 85 31 127 75 127c36 0 86 -31 112 -31c13 0 18 8 21 30h67c-3 -82 -29 -127 -75 -127c-37 0 -86 31 -108 31c-14 0 -20 -8 -23 -30z" />
    <glyph glyph-name="macron" unicode="&#xaf;" horiz-adv-x="227" 
d="M-12 640v107h251v-107h-251z" />
    <glyph glyph-name="breve" unicode="&#x2d8;" horiz-adv-x="227" 
d="M223 783h22c-11 -88 -56 -153 -131 -153c-64 0 -120 46 -131 153h21c25 -46 39 -61 110 -61c72 0 86 12 109 61z" />
    <glyph glyph-name="dotaccent" unicode="&#x2d9;" horiz-adv-x="227" 
d="M68 690c0 42 22 67 46 67c27 0 46 -31 46 -67s-19 -67 -46 -67s-46 29 -46 67z" />
    <glyph glyph-name="dieresis" unicode="&#xa8;" horiz-adv-x="227" 
d="M-25 690c0 42 22 67 46 67c27 0 46 -31 46 -67s-19 -67 -46 -67s-46 29 -46 67zM160 690c0 42 22 67 46 67c27 0 46 -31 46 -67s-19 -67 -46 -67s-46 29 -46 67z" />
    <glyph glyph-name="ring" unicode="&#x2da;" horiz-adv-x="227" 
d="M43 728c0 55 28 103 71 103c40 0 71 -47 71 -103c0 -58 -30 -104 -71 -104c-40 0 -71 45 -71 104zM83 728c0 -27 13 -47 31 -47c16 0 31 18 31 47c0 26 -14 46 -32 46c-17 0 -30 -20 -30 -46z" />
    <glyph glyph-name="cedilla" unicode="&#xb8;" horiz-adv-x="227" 
d="M52 -53l13 26c20 9 42 18 68 18c58 0 92 -27 92 -73c0 -55 -42 -83 -122 -83c-36 0 -76 7 -101 18l7 38c12 -3 22 -5 35 -5c30 0 45 11 45 33c0 20 -10 28 -37 28z" />
    <glyph glyph-name="hungarumlaut" unicode="&#x2dd;" horiz-adv-x="227" 
d="M-9 626l45 131h137l-113 -131h-69zM153 626l45 131h137l-113 -131h-69z" />
    <glyph glyph-name="ogonek" unicode="&#x2db;" horiz-adv-x="227" 
d="M48 11h78c-6 -26 -8 -44 -8 -62c0 -43 23 -67 65 -67c16 0 31 3 59 11v-68c-43 -14 -68 -19 -99 -19c-72 0 -117 39 -117 101c0 28 6 58 22 104z" />
    <glyph glyph-name="caron" unicode="&#x2c7;" horiz-adv-x="227" 
d="M169 757h73l-62 -129h-132l-63 129h79l57 -59z" />
    <glyph glyph-name="emdash" unicode="&#x2014;" horiz-adv-x="1000" 
d="M-6 377h1012v-236h-1012v236z" />
    <glyph glyph-name="AE" unicode="&#xc6;" horiz-adv-x="829" 
d="M815 188v-188h-421v139h-129l-40 -139h-225l225 745h590v-188h-196v-89h137v-188h-137v-92h196zM394 299v316h-2l-84 -316h86z" />
    <glyph glyph-name="ordfeminine" unicode="&#xaa;" horiz-adv-x="311" 
d="M26 604v107c47 32 77 42 128 42c98 0 134 -59 134 -157v-199h-135v27c-24 -22 -42 -30 -63 -30c-41 0 -71 39 -71 92c0 62 36 103 90 103c14 0 24 -2 44 -8c-2 35 -18 51 -52 51c-26 0 -45 -7 -75 -28zM153 475v50c-10 4 -15 5 -21 5c-17 0 -28 -12 -28 -31
s12 -33 28 -33c8 0 12 2 21 9z" />
    <glyph glyph-name="Lslash" unicode="&#x141;" horiz-adv-x="475" 
d="M49 0v196l-61 -69v140l61 69v409h224v-186l95 106v-140l-95 -106v-231h197v-188h-421z" />
    <glyph glyph-name="Oslash" unicode="&#xd8;" 
d="M445 685l50 74l70 -41l-70 -105c34 -61 56 -148 56 -240c0 -216 -114 -385 -260 -385c-57 0 -112 25 -160 79l-67 -101l-68 48l86 128c-32 67 -51 139 -51 231c0 215 114 384 260 384c54 0 108 -25 154 -72zM240 393c0 -45 21 -78 51 -78c29 0 51 33 51 78s-22 78 -52 78
c-29 0 -50 -33 -50 -78z" />
    <glyph glyph-name="OE" unicode="&#x152;" horiz-adv-x="779" 
d="M764 188v-188h-452c-190 0 -281 188 -281 370c0 132 56 375 285 375h448v-188h-197v-89h137v-188h-137v-92h197zM342 389c0 48 -21 81 -51 81c-29 0 -51 -35 -51 -80c0 -46 22 -78 53 -78c29 0 49 31 49 77z" />
    <glyph glyph-name="ordmasculine" unicode="&#xba;" horiz-adv-x="319" 
d="M17 575c0 107 58 182 142 182c85 0 143 -75 143 -182c0 -108 -58 -183 -143 -183c-84 0 -142 75 -142 183zM189 577c0 25 -12 41 -29 41c-18 0 -30 -17 -30 -40s13 -40 30 -40c16 0 29 17 29 39z" />
    <glyph glyph-name="ae" unicode="&#xe6;" horiz-adv-x="688" 
d="M665 223v-96c-21 -47 -85 -137 -194 -137c-70 0 -133 31 -177 88c-52 -58 -104 -87 -154 -87c-66 0 -109 62 -109 157c0 108 52 175 138 175c25 0 50 -6 69 -17c-4 67 -29 94 -85 94c-38 0 -74 -15 -113 -47v178c51 44 118 69 181 69c51 0 96 -14 125 -39
c24 25 61 39 102 39c155 0 219 -167 217 -345h-209c15 -59 54 -95 101 -95c40 0 79 23 108 63zM444 358h96c-4 61 -21 93 -52 93c-28 0 -44 -41 -44 -93zM238 126v87c-12 8 -22 11 -33 11c-27 0 -44 -21 -44 -55c0 -35 18 -60 43 -60c12 0 23 6 34 17z" />
    <glyph glyph-name="dotlessi" unicode="&#x131;" horiz-adv-x="283" 
d="M245 588v-588h-206v588h5c15 -24 80 -34 100 -34c19 0 81 8 96 34h5z" />
    <glyph glyph-name="lslash" unicode="&#x142;" horiz-adv-x="361" 
d="M284 0h-206v212l-76 -86v140l76 86v393h206v-176l74 83v-140l-74 -83v-429z" />
    <glyph glyph-name="oslash" unicode="&#xf8;" horiz-adv-x="489" 
d="M113 43l-50 -78l-61 35l66 101c-24 39 -45 109 -45 197c0 178 90 302 221 302c45 0 84 -14 120 -42l47 72l59 -35l-59 -90c34 -52 54 -123 54 -213c0 -182 -87 -301 -221 -301c-55 0 -94 18 -131 52zM289 302c0 39 -19 66 -45 66s-45 -27 -45 -66s19 -66 45 -66
s45 27 45 66z" />
    <glyph glyph-name="oe" unicode="&#x153;" horiz-adv-x="736" 
d="M716 224v-98c-34 -81 -112 -135 -193 -135c-56 0 -108 21 -142 58c-32 -37 -82 -58 -136 -58c-114 0 -216 107 -216 303c0 186 87 306 221 306c49 0 92 -17 126 -51c37 35 77 51 124 51c148 0 224 -157 216 -345h-209c18 -63 52 -95 102 -95c37 0 78 25 107 64zM495 358
h96c-1 61 -19 95 -49 95c-29 0 -46 -35 -47 -95zM292 302c0 40 -18 67 -45 67c-26 0 -45 -29 -45 -68c0 -38 19 -65 47 -65c25 0 43 27 43 66z" />
    <glyph glyph-name="germandbls" unicode="&#xdf;" horiz-adv-x="539" 
d="M35 0v355c0 168 21 402 250 402c135 0 221 -88 221 -227c0 -67 -20 -115 -65 -151c53 -35 79 -92 79 -175c0 -141 -62 -216 -176 -216c-26 0 -45 3 -69 12v206c4 -2 6 -3 11 -3c23 0 36 23 36 63c0 41 -12 60 -42 67v100c22 3 34 27 34 65s-13 59 -36 59
c-30 0 -37 -39 -37 -91v-466h-206z" />
    <glyph glyph-name="divide" unicode="&#xf7;" horiz-adv-x="453" 
d="M227 620c43 0 77 -34 77 -77s-34 -78 -77 -78s-78 35 -78 78s35 77 78 77zM226 213c43 0 78 -34 78 -77s-35 -78 -78 -78s-77 35 -77 78s34 77 77 77zM36 418h381v-158h-381v158z" />
    <glyph glyph-name="threequarters" unicode="&#xbe;" horiz-adv-x="729" 
d="M658 0h-135v130h-122v83l122 174h135v-168h50v-89h-50v-130zM523 219v94h-2l-63 -94h65zM67 751h107c83 0 122 -33 122 -101c0 -41 -14 -64 -51 -87c34 -16 54 -50 54 -94c0 -65 -38 -105 -109 -105h-123v134h7c3 -12 17 -40 55 -40c22 0 36 13 36 36c0 30 -18 47 -46 47
c-16 0 -28 -3 -52 -14v68c11 -2 19 -3 25 -4c7 -1 13 -2 18 -2c32 0 52 16 52 42c0 23 -14 38 -37 38c-28 0 -51 -18 -51 -41h-7v123zM196 -12l262 769h75l-262 -769h-75z" />
    <glyph glyph-name="onequarter" unicode="&#xbc;" horiz-adv-x="729" 
d="M658 0h-135v130h-122v83l122 174h135v-168h50v-89h-50v-130zM523 219v94h-2l-63 -94h65zM241 364h-135v344l135 49v-393zM196 -12l262 769h75l-262 -769h-75z" />
    <glyph glyph-name="onesuperior" unicode="&#xb9;" horiz-adv-x="347" 
d="M241 364h-135v344l135 49v-393z" />
    <glyph glyph-name="multiply" unicode="&#xd7;" horiz-adv-x="453" 
d="M35 434l96 96l95 -95l95 95l96 -96l-95 -95l95 -95l-96 -96l-95 95l-95 -95l-96 96l95 95z" />
    <glyph glyph-name="registered" unicode="&#xae;" horiz-adv-x="503" 
d="M372 162h-68l-22 64c-24 71 -45 99 -70 99h-21v-163h-55v397h131c64 0 88 -55 88 -111c0 -61 -27 -103 -73 -112c23 -13 30 -24 58 -94zM191 388h48c43 0 58 18 58 55c0 35 -18 54 -55 54h-51v-109zM506 362c0 -206 -114 -374 -254 -374s-255 168 -255 374
c0 207 114 374 255 374s254 -167 254 -374zM456 363c0 166 -91 299 -204 299s-205 -134 -205 -299c0 -166 92 -301 205 -301s204 135 204 301z" />
    <glyph glyph-name="Thorn" unicode="&#xde;" horiz-adv-x="567" 
d="M49 745h224v-124h71c180 0 213 -157 213 -252c0 -139 -75 -251 -169 -251c-40 0 -76 21 -115 65v-183h-224v745zM273 460v-163h15c38 0 60 31 60 84c0 42 -15 79 -52 79h-23z" />
    <glyph glyph-name="brokenbar" unicode="&#xa6;" horiz-adv-x="453" 
d="M172 175h109v-350h-109v350zM172 675h109v-350h-109v350z" />
    <glyph glyph-name="Eth" unicode="&#xd0;" horiz-adv-x="602" 
d="M50 745h257c180 0 274 -188 274 -374c0 -191 -91 -371 -284 -371h-247v302h-71v140h71v303zM274 461v-172h6c54 0 77 26 77 86c0 46 -18 86 -64 86h-19z" />
    <glyph glyph-name="onehalf" unicode="&#xbd;" horiz-adv-x="729" 
d="M241 364h-135v344l135 49v-393zM188 -12l262 769h75l-262 -769h-75zM674 69v-69h-243c80 130 97 166 97 199c0 23 -12 40 -30 40c-37 0 -56 -62 -58 -69h-8v175c39 35 70 48 107 48c77 0 127 -63 127 -159c0 -53 -11 -91 -49 -165h57z" />
    <glyph glyph-name="minus" unicode="&#x2212;" horiz-adv-x="453" 
d="M36 418h381v-158h-381v158z" />
    <glyph glyph-name="ccedilla" unicode="&#xe7;" horiz-adv-x="446" 
d="M162 -49l13 26c20 9 42 16 63 16v2c-125 17 -210 124 -210 299c0 156 78 306 235 306c46 0 100 -13 146 -35v-258c-39 28 -80 44 -112 44c-39 0 -63 -21 -63 -54c0 -35 25 -54 70 -54c42 0 81 11 105 29v-255c-36 -16 -84 -26 -133 -26v-2c36 -4 59 -29 59 -67
c0 -55 -42 -83 -122 -83c-36 0 -76 7 -101 18l7 38c12 -3 22 -5 35 -5c30 0 45 11 45 33c0 20 -10 28 -37 28z" />
    <glyph glyph-name="eth" unicode="&#xf0;" horiz-adv-x="492" 
d="M94 663l116 59c-21 33 -49 66 -93 100h163c20 -16 26 -21 42 -40l73 40l30 -50l-67 -37c87 -139 109 -258 109 -417c0 -247 -113 -330 -219 -330c-169 0 -223 172 -223 309c0 146 59 299 190 299c22 0 32 -2 57 -12c-9 35 -18 60 -35 89l-113 -60zM291 301
c0 39 -19 67 -45 67s-45 -28 -45 -67s19 -67 45 -67s45 28 45 67z" />
    <glyph glyph-name="plusminus" unicode="&#xb1;" horiz-adv-x="453" 
d="M36 120h381v-158h-381v158zM35 515h112v112h158v-112h112v-158h-112v-112h-158v112h-112v158z" />
    <glyph glyph-name="Ccedilla" unicode="&#xc7;" horiz-adv-x="531" 
d="M204 -53l13 26c20 9 42 17 64 17v2c-158 20 -246 186 -246 376c0 226 119 389 282 389c72 0 157 -32 205 -79l-94 -263c-26 14 -53 22 -91 22c-48 0 -72 -20 -72 -57c0 -39 28 -59 83 -59c34 0 56 6 80 24l94 -280c-51 -45 -145 -83 -219 -75v-2c46 -2 74 -28 74 -70
c0 -55 -42 -83 -122 -83c-36 0 -76 7 -101 18l7 38c12 -3 22 -5 35 -5c30 0 45 11 45 33c0 20 -10 28 -37 28z" />
    <glyph glyph-name="thorn" unicode="&#xfe;" horiz-adv-x="546" 
d="M247 745v-202c30 32 63 50 97 50c102 0 178 -123 178 -290c0 -179 -81 -308 -193 -308c-27 0 -53 8 -82 26v-186h-206v910h206zM247 329v-106c12 -10 24 -14 35 -14c26 0 42 28 42 73c0 44 -16 75 -41 75c-14 0 -26 -10 -36 -28z" />
    <glyph glyph-name="copyright" unicode="&#xa9;" horiz-adv-x="503" 
d="M312 307l54 -27c-17 -81 -56 -126 -112 -126c-78 0 -129 81 -129 206c0 129 50 210 130 210c55 0 91 -38 111 -119l-54 -19c-12 43 -27 68 -58 68c-47 0 -70 -54 -70 -135c0 -89 23 -142 66 -142c31 0 53 29 62 84zM505 362c0 -206 -114 -374 -254 -374
s-255 168 -255 374c0 207 114 374 255 374s254 -167 254 -374zM455 363c0 166 -91 299 -204 299s-205 -134 -205 -299c0 -166 92 -301 205 -301s204 135 204 301z" />
    <glyph glyph-name="logicalnot" unicode="&#xac;" horiz-adv-x="453" 
d="M36 538h381v-398h-158v240h-223v158z" />
    <glyph glyph-name="twosuperior" unicode="&#xb2;" horiz-adv-x="347" 
d="M292 433v-69h-243c80 130 97 166 97 199c0 23 -12 40 -30 40c-19 0 -34 -22 -49 -41l-17 -21v168c39 35 70 48 107 48c77 0 127 -63 127 -159c0 -53 -11 -91 -49 -165h57z" />
    <glyph glyph-name="threesuperior" unicode="&#xb3;" horiz-adv-x="347" 
d="M68 751h107c83 0 122 -33 122 -101c0 -41 -14 -64 -51 -87c34 -16 54 -50 54 -94c0 -65 -38 -105 -109 -105h-123v129l7 -7c11 -11 22 -28 55 -28c22 0 36 13 36 36c0 30 -18 47 -46 47c-16 0 -28 -3 -52 -14v68c11 -2 19 -3 25 -4c7 -1 13 -2 18 -2c32 0 52 16 52 42
c0 23 -14 38 -37 38c-18 0 -26 -4 -42 -18l-16 -18v118z" />
    <glyph glyph-name="trademark" unicode="&#x2122;" horiz-adv-x="680" 
d="M154 345v330h-84v70h221v-70h-82v-330h-55zM324 345v400h86l49 -275h2l48 275h86v-400h-52v319h-2l-57 -319h-50l-56 319h-2v-319h-52z" />
    <glyph glyph-name="degree" unicode="&#xb0;" horiz-adv-x="269" 
d="M40 617c0 77 43 140 95 140c53 0 95 -63 95 -140s-42 -140 -93 -140c-54 0 -97 62 -97 140zM169 617c0 28 -15 49 -34 49c-18 0 -33 -22 -33 -49s15 -50 33 -50c19 0 34 23 34 50z" />
    <glyph glyph-name="mu" unicode="&#xb5;" horiz-adv-x="453" 
d="M266 0v69h-2c-3 -53 -15 -74 -42 -74c-25 0 -34 20 -37 53h-2v-213h-194v753h194v-333c0 -39 12 -64 38 -64c15 0 33 10 37 33v364h206v-588h-198z" />
    <glyph glyph-name="Aacute" unicode="&#xc1;" horiz-adv-x="673" 
d="M224 0h-224l176 745h321l176 -745h-224l-30 127h-165zM378 302l-41 182h-2l-40 -182h83zM279 790l46 131h137l-114 -131h-69z" />
    <glyph glyph-name="Acircumflex" unicode="&#xc2;" horiz-adv-x="673" 
d="M224 0h-224l176 745h321l176 -745h-224l-30 127h-165zM378 302l-41 182h-2l-40 -182h83zM281 792h-73l63 129h131l63 -129h-79l-56 59z" />
    <glyph glyph-name="Adieresis" unicode="&#xc4;" horiz-adv-x="673" 
d="M224 0h-224l176 745h321l176 -745h-224l-30 127h-165zM378 302l-41 182h-2l-40 -182h83zM198 854c0 42 22 67 46 67c27 0 46 -31 46 -67s-19 -67 -46 -67s-46 29 -46 67zM383 854c0 42 22 67 46 67c27 0 46 -31 46 -67s-19 -67 -46 -67s-46 29 -46 67z" />
    <glyph glyph-name="Agrave" unicode="&#xc0;" horiz-adv-x="673" 
d="M224 0h-224l176 745h321l176 -745h-224l-30 127h-165zM378 302l-41 182h-2l-40 -182h83zM394 790h-69l-114 131h137z" />
    <glyph glyph-name="Aring" unicode="&#xc5;" horiz-adv-x="673" 
d="M224 0h-224l176 745h321l176 -745h-224l-30 127h-165zM378 302l-41 182h-2l-40 -182h83zM266 892c0 55 28 103 71 103c40 0 71 -47 71 -103c0 -58 -30 -104 -71 -104c-40 0 -71 45 -71 104zM306 892c0 -27 13 -47 31 -47c16 0 31 18 31 47c0 26 -14 46 -32 46
c-17 0 -30 -20 -30 -46z" />
    <glyph glyph-name="Atilde" unicode="&#xc3;" horiz-adv-x="673" 
d="M224 0h-224l176 745h321l176 -745h-224l-30 127h-165zM378 302l-41 182h-2l-40 -182h83zM268 794h-69c6 85 31 127 75 127c36 0 86 -31 112 -31c13 0 18 8 21 30h67c-3 -82 -29 -127 -75 -127c-37 0 -86 31 -108 31c-14 0 -20 -8 -23 -30z" />
    <glyph glyph-name="Eacute" unicode="&#xc9;" horiz-adv-x="489" 
d="M471 188v-188h-421v745h421v-188h-197v-90h137v-188h-137v-91h197zM187 790l46 131h137l-114 -131h-69z" />
    <glyph glyph-name="Ecircumflex" unicode="&#xca;" horiz-adv-x="489" 
d="M471 188v-188h-421v745h421v-188h-197v-90h137v-188h-137v-91h197zM189 792h-73l63 129h131l63 -129h-79l-56 59z" />
    <glyph glyph-name="Edieresis" unicode="&#xcb;" horiz-adv-x="489" 
d="M471 188v-188h-421v745h421v-188h-197v-90h137v-188h-137v-91h197zM106 854c0 42 22 67 46 67c27 0 46 -31 46 -67s-19 -67 -46 -67s-46 29 -46 67zM291 854c0 42 22 67 46 67c27 0 46 -31 46 -67s-19 -67 -46 -67s-46 29 -46 67z" />
    <glyph glyph-name="Egrave" unicode="&#xc8;" horiz-adv-x="489" 
d="M471 188v-188h-421v745h421v-188h-197v-90h137v-188h-137v-91h197zM302 790h-69l-114 131h137z" />
    <glyph glyph-name="Iacute" unicode="&#xcd;" horiz-adv-x="326" 
d="M51 0v745h225v-745h-225zM106 790l46 131h137l-114 -131h-69z" />
    <glyph glyph-name="Icircumflex" unicode="&#xce;" horiz-adv-x="326" 
d="M51 0v745h225v-745h-225zM108 792h-73l63 129h131l63 -129h-79l-56 59z" />
    <glyph glyph-name="Idieresis" unicode="&#xcf;" horiz-adv-x="326" 
d="M51 0v745h225v-745h-225zM25 854c0 42 22 67 46 67c27 0 46 -31 46 -67s-19 -67 -46 -67s-46 29 -46 67zM210 854c0 42 22 67 46 67c27 0 46 -31 46 -67s-19 -67 -46 -67s-46 29 -46 67z" />
    <glyph glyph-name="Igrave" unicode="&#xcc;" horiz-adv-x="326" 
d="M51 0v745h225v-745h-225zM221 790h-69l-114 131h137z" />
    <glyph glyph-name="Ntilde" unicode="&#xd1;" horiz-adv-x="602" 
d="M50 0v745h160l117 -249h2v249h224v-751h-170l-107 232h-2v-226h-224zM233 794h-69c6 85 31 127 75 127c36 0 86 -31 112 -31c13 0 18 8 21 30h67c-3 -82 -29 -127 -75 -127c-37 0 -86 31 -108 31c-14 0 -20 -8 -23 -30z" />
    <glyph glyph-name="Oacute" unicode="&#xd3;" 
d="M31 373c0 215 114 384 260 384s260 -168 260 -384s-114 -385 -260 -385s-260 169 -260 385zM240 393c0 -45 21 -78 51 -78c29 0 51 33 51 78s-22 78 -52 78c-29 0 -50 -33 -50 -78zM233 790l46 131h137l-114 -131h-69z" />
    <glyph glyph-name="Ocircumflex" unicode="&#xd4;" 
d="M31 373c0 215 114 384 260 384s260 -168 260 -384s-114 -385 -260 -385s-260 169 -260 385zM240 393c0 -45 21 -78 51 -78c29 0 51 33 51 78s-22 78 -52 78c-29 0 -50 -33 -50 -78zM235 792h-73l63 129h131l63 -129h-79l-56 59z" />
    <glyph glyph-name="Odieresis" unicode="&#xd6;" 
d="M31 373c0 215 114 384 260 384s260 -168 260 -384s-114 -385 -260 -385s-260 169 -260 385zM240 393c0 -45 21 -78 51 -78c29 0 51 33 51 78s-22 78 -52 78c-29 0 -50 -33 -50 -78zM152 854c0 42 22 67 46 67c27 0 46 -31 46 -67s-19 -67 -46 -67s-46 29 -46 67zM337 854
c0 42 22 67 46 67c27 0 46 -31 46 -67s-19 -67 -46 -67s-46 29 -46 67z" />
    <glyph glyph-name="Ograve" unicode="&#xd2;" 
d="M31 373c0 215 114 384 260 384s260 -168 260 -384s-114 -385 -260 -385s-260 169 -260 385zM240 393c0 -45 21 -78 51 -78c29 0 51 33 51 78s-22 78 -52 78c-29 0 -50 -33 -50 -78zM348 790h-69l-114 131h137z" />
    <glyph glyph-name="Otilde" unicode="&#xd5;" 
d="M31 373c0 215 114 384 260 384s260 -168 260 -384s-114 -385 -260 -385s-260 169 -260 385zM240 393c0 -45 21 -78 51 -78c29 0 51 33 51 78s-22 78 -52 78c-29 0 -50 -33 -50 -78zM222 794h-69c6 85 31 127 75 127c36 0 86 -31 112 -31c13 0 18 8 21 30h67
c-3 -82 -29 -127 -75 -127c-37 0 -86 31 -108 31c-14 0 -20 -8 -23 -30z" />
    <glyph glyph-name="Scaron" unicode="&#x160;" horiz-adv-x="496" 
d="M475 707l-56 -235c-33 71 -79 111 -126 111c-26 0 -40 -15 -40 -41c0 -87 230 -68 230 -305c0 -164 -83 -249 -244 -249c-86 0 -156 17 -231 56l56 249c29 -69 82 -119 126 -119c22 0 37 17 37 42c0 91 -198 65 -198 288c0 168 82 253 243 253c69 0 148 -19 203 -50z
M304 921h73l-62 -129h-132l-63 129h79l57 -59z" />
    <glyph glyph-name="Uacute" unicode="&#xda;" horiz-adv-x="588" 
d="M547 745v-388c0 -281 -155 -369 -252 -369c-126 0 -252 88 -252 369v388h224v-345c0 -59 5 -85 28 -85s28 25 28 85v345h224zM237 790l46 131h137l-114 -131h-69z" />
    <glyph glyph-name="Ucircumflex" unicode="&#xdb;" horiz-adv-x="588" 
d="M547 745v-388c0 -281 -155 -369 -252 -369c-126 0 -252 88 -252 369v388h224v-345c0 -59 5 -85 28 -85s28 25 28 85v345h224zM239 792h-73l63 129h131l63 -129h-79l-56 59z" />
    <glyph glyph-name="Udieresis" unicode="&#xdc;" horiz-adv-x="588" 
d="M547 745v-388c0 -281 -155 -369 -252 -369c-126 0 -252 88 -252 369v388h224v-345c0 -59 5 -85 28 -85s28 25 28 85v345h224zM156 854c0 42 22 67 46 67c27 0 46 -31 46 -67s-19 -67 -46 -67s-46 29 -46 67zM341 854c0 42 22 67 46 67c27 0 46 -31 46 -67
s-19 -67 -46 -67s-46 29 -46 67z" />
    <glyph glyph-name="Ugrave" unicode="&#xd9;" horiz-adv-x="588" 
d="M547 745v-388c0 -281 -155 -369 -252 -369c-126 0 -252 88 -252 369v388h224v-345c0 -59 5 -85 28 -85s28 25 28 85v345h224zM352 790h-69l-114 131h137z" />
    <glyph glyph-name="Yacute" unicode="&#xdd;" horiz-adv-x="617" 
d="M420 0h-224v325l-192 420h224l80 -170l80 170h224l-192 -420v-325zM251 790l46 131h137l-114 -131h-69z" />
    <glyph glyph-name="Ydieresis" unicode="&#x178;" horiz-adv-x="617" 
d="M420 0h-224v325l-192 420h224l80 -170l80 170h224l-192 -420v-325zM170 854c0 42 22 67 46 67c27 0 46 -31 46 -67s-19 -67 -46 -67s-46 29 -46 67zM355 854c0 42 22 67 46 67c27 0 46 -31 46 -67s-19 -67 -46 -67s-46 29 -46 67z" />
    <glyph glyph-name="Zcaron" unicode="&#x17d;" horiz-adv-x="559" 
d="M543 188v-188h-534l234 557h-215v188h526l-233 -557h222zM335 921h73l-62 -129h-132l-63 129h79l57 -59z" />
    <glyph glyph-name="aacute" unicode="&#xe1;" horiz-adv-x="481" 
d="M42 346v177c64 50 119 70 195 70c141 0 207 -81 207 -275v-318h-206v44c-26 -29 -65 -49 -98 -49c-63 0 -108 64 -108 154c0 101 55 171 136 171c23 0 48 -5 70 -14c-2 58 -29 87 -81 87c-40 0 -74 -14 -115 -47zM238 130v82c-14 7 -23 9 -34 9c-25 0 -41 -20 -41 -51
c0 -32 18 -56 43 -56c12 0 23 5 32 16zM183 626l46 131h137l-114 -131h-69z" />
    <glyph glyph-name="acircumflex" unicode="&#xe2;" horiz-adv-x="481" 
d="M42 346v177c64 50 119 70 195 70c141 0 207 -81 207 -275v-318h-206v44c-26 -29 -65 -49 -98 -49c-63 0 -108 64 -108 154c0 101 55 171 136 171c23 0 48 -5 70 -14c-2 58 -29 87 -81 87c-40 0 -74 -14 -115 -47zM238 130v82c-14 7 -23 9 -34 9c-25 0 -41 -20 -41 -51
c0 -32 18 -56 43 -56c12 0 23 5 32 16zM185 628h-73l63 129h131l63 -129h-79l-56 59z" />
    <glyph glyph-name="adieresis" unicode="&#xe4;" horiz-adv-x="481" 
d="M42 346v177c64 50 119 70 195 70c141 0 207 -81 207 -275v-318h-206v44c-26 -29 -65 -49 -98 -49c-63 0 -108 64 -108 154c0 101 55 171 136 171c23 0 48 -5 70 -14c-2 58 -29 87 -81 87c-40 0 -74 -14 -115 -47zM238 130v82c-14 7 -23 9 -34 9c-25 0 -41 -20 -41 -51
c0 -32 18 -56 43 -56c12 0 23 5 32 16zM102 690c0 42 22 67 46 67c27 0 46 -31 46 -67s-19 -67 -46 -67s-46 29 -46 67zM287 690c0 42 22 67 46 67c27 0 46 -31 46 -67s-19 -67 -46 -67s-46 29 -46 67z" />
    <glyph glyph-name="agrave" unicode="&#xe0;" horiz-adv-x="481" 
d="M42 346v177c64 50 119 70 195 70c141 0 207 -81 207 -275v-318h-206v44c-26 -29 -65 -49 -98 -49c-63 0 -108 64 -108 154c0 101 55 171 136 171c23 0 48 -5 70 -14c-2 58 -29 87 -81 87c-40 0 -74 -14 -115 -47zM238 130v82c-14 7 -23 9 -34 9c-25 0 -41 -20 -41 -51
c0 -32 18 -56 43 -56c12 0 23 5 32 16zM298 626h-69l-114 131h137z" />
    <glyph glyph-name="aring" unicode="&#xe5;" horiz-adv-x="481" 
d="M42 346v177c64 50 119 70 195 70c141 0 207 -81 207 -275v-318h-206v44c-26 -29 -65 -49 -98 -49c-63 0 -108 64 -108 154c0 101 55 171 136 171c23 0 48 -5 70 -14c-2 58 -29 87 -81 87c-40 0 -74 -14 -115 -47zM238 130v82c-14 7 -23 9 -34 9c-25 0 -41 -20 -41 -51
c0 -32 18 -56 43 -56c12 0 23 5 32 16zM170 728c0 55 28 103 71 103c40 0 71 -47 71 -103c0 -58 -30 -104 -71 -104c-40 0 -71 45 -71 104zM210 728c0 -27 13 -47 31 -47c16 0 31 18 31 47c0 26 -14 46 -32 46c-17 0 -30 -20 -30 -46z" />
    <glyph glyph-name="atilde" unicode="&#xe3;" horiz-adv-x="481" 
d="M42 346v177c64 50 119 70 195 70c141 0 207 -81 207 -275v-318h-206v44c-26 -29 -65 -49 -98 -49c-63 0 -108 64 -108 154c0 101 55 171 136 171c23 0 48 -5 70 -14c-2 58 -29 87 -81 87c-40 0 -74 -14 -115 -47zM238 130v82c-14 7 -23 9 -34 9c-25 0 -41 -20 -41 -51
c0 -32 18 -56 43 -56c12 0 23 5 32 16zM172 630h-69c6 85 31 127 75 127c36 0 86 -31 112 -31c13 0 18 8 21 30h67c-3 -82 -29 -127 -75 -127c-37 0 -86 31 -108 31c-14 0 -20 -8 -23 -30z" />
    <glyph glyph-name="eacute" unicode="&#xe9;" horiz-adv-x="475" 
d="M450 224v-103c-47 -90 -116 -130 -194 -130c-139 0 -231 123 -231 308c0 178 85 301 209 301c127 0 220 -125 216 -344h-210c15 -59 53 -96 98 -96s87 24 112 64zM227 359h98c-2 57 -21 93 -51 93c-26 0 -47 -40 -47 -93zM180 626l46 131h137l-114 -131h-69z" />
    <glyph glyph-name="ecircumflex" unicode="&#xea;" horiz-adv-x="475" 
d="M450 224v-103c-47 -90 -116 -130 -194 -130c-139 0 -231 123 -231 308c0 178 85 301 209 301c127 0 220 -125 216 -344h-210c15 -59 53 -96 98 -96s87 24 112 64zM227 359h98c-2 57 -21 93 -51 93c-26 0 -47 -40 -47 -93zM182 628h-73l63 129h131l63 -129h-79l-56 59z
" />
    <glyph glyph-name="edieresis" unicode="&#xeb;" horiz-adv-x="475" 
d="M450 224v-103c-47 -90 -116 -130 -194 -130c-139 0 -231 123 -231 308c0 178 85 301 209 301c127 0 220 -125 216 -344h-210c15 -59 53 -96 98 -96s87 24 112 64zM227 359h98c-2 57 -21 93 -51 93c-26 0 -47 -40 -47 -93zM99 690c0 42 22 67 46 67c27 0 46 -31 46 -67
s-19 -67 -46 -67s-46 29 -46 67zM284 690c0 42 22 67 46 67c27 0 46 -31 46 -67s-19 -67 -46 -67s-46 29 -46 67z" />
    <glyph glyph-name="egrave" unicode="&#xe8;" horiz-adv-x="475" 
d="M450 224v-103c-47 -90 -116 -130 -194 -130c-139 0 -231 123 -231 308c0 178 85 301 209 301c127 0 220 -125 216 -344h-210c15 -59 53 -96 98 -96s87 24 112 64zM227 359h98c-2 57 -21 93 -51 93c-26 0 -47 -40 -47 -93zM295 626h-69l-114 131h137z" />
    <glyph glyph-name="iacute" unicode="&#xed;" horiz-adv-x="283" 
d="M245 588v-588h-206v588h5c15 -24 80 -34 100 -34c19 0 81 8 96 34h5zM84 626l46 131h137l-114 -131h-69z" />
    <glyph glyph-name="icircumflex" unicode="&#xee;" horiz-adv-x="283" 
d="M245 588v-588h-206v588h5c15 -24 80 -34 100 -34c19 0 81 8 96 34h5zM86 628h-73l63 129h131l63 -129h-79l-56 59z" />
    <glyph glyph-name="idieresis" unicode="&#xef;" horiz-adv-x="283" 
d="M245 588v-588h-206v588h5c15 -24 80 -34 100 -34c19 0 81 8 96 34h5zM3 690c0 42 22 67 46 67c27 0 46 -31 46 -67s-19 -67 -46 -67s-46 29 -46 67zM188 690c0 42 22 67 46 67c27 0 46 -31 46 -67s-19 -67 -46 -67s-46 29 -46 67z" />
    <glyph glyph-name="igrave" unicode="&#xec;" horiz-adv-x="283" 
d="M245 588v-588h-206v588h5c15 -24 80 -34 100 -34c19 0 81 8 96 34h5zM199 626h-69l-114 131h137z" />
    <glyph glyph-name="ntilde" unicode="&#xf1;" horiz-adv-x="546" 
d="M243 588v-74h2c35 55 73 79 122 79c114 0 145 -105 145 -255v-338h-194v348c0 40 -13 69 -37 69c-11 0 -27 -9 -38 -20v-397h-206v588h206zM205 630h-69c6 85 31 127 75 127c36 0 86 -31 112 -31c13 0 18 8 21 30h67c-3 -82 -29 -127 -75 -127c-37 0 -86 31 -108 31
c-14 0 -20 -8 -23 -30z" />
    <glyph glyph-name="oacute" unicode="&#xf3;" horiz-adv-x="489" 
d="M465 292c0 -182 -86 -301 -221 -301c-133 0 -221 123 -221 307c0 178 90 302 221 302c126 0 221 -114 221 -308zM289 300c0 39 -19 66 -45 66s-45 -27 -45 -66s19 -66 45 -66s45 27 45 66zM187 626l46 131h137l-114 -131h-69z" />
    <glyph glyph-name="ocircumflex" unicode="&#xf4;" horiz-adv-x="489" 
d="M465 292c0 -182 -86 -301 -221 -301c-133 0 -221 123 -221 307c0 178 90 302 221 302c126 0 221 -114 221 -308zM289 300c0 39 -19 66 -45 66s-45 -27 -45 -66s19 -66 45 -66s45 27 45 66zM189 628h-73l63 129h131l63 -129h-79l-56 59z" />
    <glyph glyph-name="odieresis" unicode="&#xf6;" horiz-adv-x="489" 
d="M465 292c0 -182 -86 -301 -221 -301c-133 0 -221 123 -221 307c0 178 90 302 221 302c126 0 221 -114 221 -308zM289 300c0 39 -19 66 -45 66s-45 -27 -45 -66s19 -66 45 -66s45 27 45 66zM106 690c0 42 22 67 46 67c27 0 46 -31 46 -67s-19 -67 -46 -67s-46 29 -46 67z
M291 690c0 42 22 67 46 67c27 0 46 -31 46 -67s-19 -67 -46 -67s-46 29 -46 67z" />
    <glyph glyph-name="ograve" unicode="&#xf2;" horiz-adv-x="489" 
d="M465 292c0 -182 -86 -301 -221 -301c-133 0 -221 123 -221 307c0 178 90 302 221 302c126 0 221 -114 221 -308zM289 300c0 39 -19 66 -45 66s-45 -27 -45 -66s19 -66 45 -66s45 27 45 66zM302 626h-69l-114 131h137z" />
    <glyph glyph-name="otilde" unicode="&#xf5;" horiz-adv-x="489" 
d="M465 292c0 -182 -86 -301 -221 -301c-133 0 -221 123 -221 307c0 178 90 302 221 302c126 0 221 -114 221 -308zM289 300c0 39 -19 66 -45 66s-45 -27 -45 -66s19 -66 45 -66s45 27 45 66zM176 630h-69c6 85 31 127 75 127c36 0 86 -31 112 -31c13 0 18 8 21 30h67
c-3 -82 -29 -127 -75 -127c-37 0 -86 31 -108 31c-14 0 -20 -8 -23 -30z" />
    <glyph glyph-name="scaron" unicode="&#x161;" horiz-adv-x="418" 
d="M5 57l45 165c27 -53 71 -89 110 -89c24 0 40 16 40 42c0 64 -75 50 -129 104c-28 28 -54 72 -54 135c0 119 72 186 198 186c66 0 130 -18 177 -50l-49 -150c-30 41 -66 63 -93 63c-23 0 -34 -13 -34 -36c0 -63 88 -51 140 -103c28 -28 48 -80 48 -137
c0 -120 -71 -196 -184 -196c-63 0 -148 26 -215 66zM265 757h73l-62 -129h-132l-63 129h79l57 -59z" />
    <glyph glyph-name="uacute" unicode="&#xfa;" horiz-adv-x="546" 
d="M505 588v-588h-198v103h-2c-34 -71 -80 -108 -136 -108c-98 0 -139 95 -139 208v385h194v-328c0 -36 8 -69 38 -69c16 0 29 12 37 31v366h206zM216 626l46 131h137l-114 -131h-69z" />
    <glyph glyph-name="ucircumflex" unicode="&#xfb;" horiz-adv-x="546" 
d="M505 588v-588h-198v103h-2c-34 -71 -80 -108 -136 -108c-98 0 -139 95 -139 208v385h194v-328c0 -36 8 -69 38 -69c16 0 29 12 37 31v366h206zM218 628h-73l63 129h131l63 -129h-79l-56 59z" />
    <glyph glyph-name="udieresis" unicode="&#xfc;" horiz-adv-x="546" 
d="M505 588v-588h-198v103h-2c-34 -71 -80 -108 -136 -108c-98 0 -139 95 -139 208v385h194v-328c0 -36 8 -69 38 -69c16 0 29 12 37 31v366h206zM135 690c0 42 22 67 46 67c27 0 46 -31 46 -67s-19 -67 -46 -67s-46 29 -46 67zM320 690c0 42 22 67 46 67
c27 0 46 -31 46 -67s-19 -67 -46 -67s-46 29 -46 67z" />
    <glyph glyph-name="ugrave" unicode="&#xf9;" horiz-adv-x="546" 
d="M505 588v-588h-198v103h-2c-34 -71 -80 -108 -136 -108c-98 0 -139 95 -139 208v385h194v-328c0 -36 8 -69 38 -69c16 0 29 12 37 31v366h206zM331 626h-69l-114 131h137z" />
    <glyph glyph-name="yacute" unicode="&#xfd;" horiz-adv-x="503" 
d="M285 -165h-223l82 286l-141 467h204l47 -157h2l46 157h199zM194 626l46 131h137l-114 -131h-69z" />
    <glyph glyph-name="ydieresis" unicode="&#xff;" horiz-adv-x="503" 
d="M285 -165h-223l82 286l-141 467h204l47 -157h2l46 157h199zM113 690c0 42 22 67 46 67c27 0 46 -31 46 -67s-19 -67 -46 -67s-46 29 -46 67zM298 690c0 42 22 67 46 67c27 0 46 -31 46 -67s-19 -67 -46 -67s-46 29 -46 67z" />
    <glyph glyph-name="zcaron" unicode="&#x17e;" horiz-adv-x="446" 
d="M435 194v-194h-429l144 400h-126v188h411l-145 -394h145zM279 757h73l-62 -129h-132l-63 129h79l57 -59z" />
    </font>
</defs>
</svg>
